HIERARCHY
ROOT Hips
{
 OFFSET 0.000000 0.000000 0.000000
 CHANNELS 6 Xposition Yposition Zposition Yrotation Xrotation Zrotation
 JOINT Chest
 {
  OFFSET 0.000000 9.585900 0.002600
  CHANNELS 3 Yrotation Xrotation Zrotation
  JOINT Chest2
  {
   OFFSET 0.000000 9.601200 -0.005300
   CHANNELS 3 Yrotation Xrotation Zrotation
   JOINT Chest3
   {
    OFFSET 0.000000 9.561800 0.000000
    CHANNELS 3 Yrotation Xrotation Zrotation
    JOINT Chest4
    {
     OFFSET 0.000000 9.552100 0.000000
     CHANNELS 3 Yrotation Xrotation Zrotation
     JOINT Neck
     {
      OFFSET 0.000000 14.453000 0.000000
      CHANNELS 3 Yrotation Xrotation Zrotation
      JOINT Head
      {
       OFFSET 0.000000 8.936500 -0.011300
       CHANNELS 3 Yrotation Xrotation Zrotation
       End Site
       {
        OFFSET 0.000000 17.073600 -0.006000
       }
      }
     }
     JOINT RightCollar
     {
      OFFSET -2.921100 9.558500 0.000000
      CHANNELS 3 Yrotation Xrotation Zrotation
      JOINT RightShoulder
      {
       OFFSET -13.519700 0.000000 0.000000
       CHANNELS 3 Yrotation Xrotation Zrotation
       JOINT RightElbow
       {
        OFFSET 0.000000 -29.696600 0.000000
        CHANNELS 3 Yrotation Xrotation Zrotation
        JOINT RightWrist
        {
         OFFSET 0.000000 -24.004700 0.000000
         CHANNELS 3 Yrotation Xrotation Zrotation
         End Site
         {
          OFFSET 0.000000 -17.728500 0.000000
         }
        }
       }
      }
     }
     JOINT LeftCollar
     {
      OFFSET 2.921100 9.558500 0.000000
      CHANNELS 3 Yrotation Xrotation Zrotation
      JOINT LeftShoulder
      {
       OFFSET 13.519700 0.000000 0.000000
       CHANNELS 3 Yrotation Xrotation Zrotation
       JOINT LeftElbow
       {
        OFFSET 0.000000 -29.696600 0.000000
        CHANNELS 3 Yrotation Xrotation Zrotation
        JOINT LeftWrist
        {
         OFFSET 0.000000 -24.004700 0.000000
         CHANNELS 3 Yrotation Xrotation Zrotation
         End Site
         {
          OFFSET 0.000000 -17.728500 0.000000
         }
        }
       }
      }
     }
    }
   }
  }
 }
 JOINT RightHip
 {
  OFFSET -7.771700 -0.012900 -0.001300
  CHANNELS 3 Yrotation Xrotation Zrotation
  JOINT RightKnee
  {
   OFFSET 0.000000 -40.869800 0.001200
   CHANNELS 3 Yrotation Xrotation Zrotation
   JOINT RightAnkle
   {
    OFFSET 0.000000 -39.717900 0.002100
    CHANNELS 3 Yrotation Xrotation Zrotation
    JOINT RightToe
    {
     OFFSET 0.000000 -4.965400 11.033500
     CHANNELS 3 Yrotation Xrotation Zrotation
     End Site
     {
      OFFSET 0.000000 -1.423100 5.872300
     }
    }
   }
  }
 }
 JOINT LeftHip
 {
  OFFSET 7.771700 -0.012900 -0.001300
  CHANNELS 3 Yrotation Xrotation Zrotation
  JOINT LeftKnee
  {
   OFFSET 0.000000 -40.869800 0.001200
   CHANNELS 3 Yrotation Xrotation Zrotation
   JOINT LeftAnkle
   {
    OFFSET 0.000000 -39.717900 0.002100
    CHANNELS 3 Yrotation Xrotation Zrotation
    JOINT LeftToe
    {
     OFFSET 0.000000 -4.965400 11.033500
     CHANNELS 3 Yrotation Xrotation Zrotation
     End Site
     {
      OFFSET 0.000000 -1.423100 5.872300
     }
    }
   }
  }
 }
}
MOTION
Frames: 16
Frame Time: 0.008333
-15.264994 58.415115 59.524227 179.943119 -31.798485 -10.872009 3.576167 22.360052 7.297196 0.288437 3.335981 0.593672 0.506293 5.344445 1.002575 2.316998 19.063989 3.921630 -0.962175 8.882664 -1.371405 -1.242874 -19.246525 -2.289549 2.926864 -2.573489 -0.148622 11.033928 -21.701070 -19.421111 113.854949 -73.030279 -86.956894 21.264247 -14.868037 -43.881634 -7.018935 -3.709608 -1.467997 19.392532 -13.332514 -0.545045 130.264584 -56.483817 -163.975537 -7.547888 4.895605 -21.557057 6.730274 -37.799489 3.298656 -3.583317 63.325260 -4.510814 7.189310 11.562332 13.310956 -0.224578 -7.735587 0.122547 -16.217045 -46.807761 8.693081 27.535451 63.468200 30.986006 -11.159907 41.683634 2.469566 0.393553 -19.996389 -9.056128
-15.265802 58.415737 59.523998 179.964179 -31.804946 -10.881058 3.564188 22.354690 7.308848 0.292252 3.326733 0.604148 0.503296 5.344436 1.006561 2.307464 19.063197 3.934367 -0.986025 8.819245 -1.403638 -1.281215 -19.317609 -2.346817 3.054737 -2.635213 -0.189918 11.421574 -21.827848 -19.573964 113.690781 -73.138055 -86.507621 21.288055 -14.910110 -43.844277 -7.042190 -3.855878 -1.552760 18.839478 -13.440721 -0.487957 132.513201 -57.289004 -165.671297 -7.666241 4.972054 -21.169968 6.722538 -37.771187 3.302720 -3.559776 63.298340 -4.496437 7.147669 11.554623 13.306653 -0.198786 -7.714857 0.129650 -16.201330 -46.800752 8.680233 27.575326 63.445555 30.997877 -11.074049 41.732418 2.608622 0.358758 -20.091180 -9.098401
-15.260031 58.417121 59.525769 179.965606 -31.803659 -10.926071 3.586142 22.333066 7.371485 0.317776 3.252145 0.645316 0.496276 5.328861 1.013729 2.283465 19.057036 3.953173 -1.032935 8.834520 -1.468713 -1.328976 -19.356295 -2.396901 3.168878 -2.609678 -0.242578 11.848825 -21.985198 -19.744230 113.507252 -73.204341 -86.048906 21.314667 -14.972020 -43.805747 -7.097727 -3.924685 -1.694240 18.209707 -13.590185 -0.420604 134.397328 -58.083887 -167.120362 -7.747036 5.007441 -20.867063 6.709302 -37.742144 3.363306 -3.559176 63.230488 -4.487362 7.096856 11.562625 13.293247 -0.147351 -7.684073 0.134833 -16.220304 -46.791185 8.734326 27.573058 63.436526 30.987575 -10.993479 41.768386 2.707703 0.309026 -20.137037 -9.118751
-15.261078 58.418348 59.525962 179.971163 -31.807383 -10.937500 3.597392 22.290481 7.410878 0.330294 3.236055 0.643029 0.494631 5.314571 1.017368 2.286186 19.013098 3.981249 -1.078741 8.849286 -1.507835 -1.377076 -19.343858 -2.427110 3.274209 -2.582566 -0.249292 12.318945 -22.175319 -19.934785 113.298331 -73.229733 -85.575632 21.343239 -15.045089 -43.773981 -7.181380 -3.993758 -1.823202 17.504581 -13.774559 -0.335652 135.634796 -58.852613 -168.083371 -7.794438 5.007539 -20.646520 6.729868 -37.712070 3.365583 -3.549687 63.178511 -4.469797 7.083542 11.573048 13.301089 -0.148791 -7.672101 0.138207 -16.172291 -46.779111 8.721203 27.525505 63.423685 30.946973 -10.965795 41.776379 2.761894 0.295922 -20.153477 -9.127289
-15.268045 58.421323 59.521634 -179.970100 -31.830356 -10.946227 3.599893 22.220761 7.444942 0.304762 3.265607 0.630499 0.494526 5.297953 1.021301 2.290723 18.984739 4.001872 -1.123549 8.856016 -1.535136 -1.408133 -19.270804 -2.431415 3.373589 -2.565727 -0.231694 12.833685 -22.398942 -20.144350 113.050790 -73.225757 -85.079193 21.369794 -15.125171 -43.749740 -7.289737 -4.077884 -1.950651 16.740367 -13.983061 -0.229524 136.030157 -59.595990 -168.383834 -7.802000 4.969013 -20.486754 6.735414 -37.656468 3.325599 -3.538652 63.153464 -4.447151 7.058863 11.573643 13.309235 -0.144216 -7.668965 0.139271 -16.100873 -46.745079 8.649499 27.432121 63.411348 30.867824 -10.988721 41.764658 2.771275 0.327020 -20.183703 -9.124405
-15.277266 58.421768 59.520773 -179.963641 -31.835729 -10.918582 3.630046 22.152825 7.455751 0.294575 3.267990 0.628299 0.494680 5.280837 1.025319 2.296522 18.955294 4.023241 -1.176058 8.891486 -1.561529 -1.531440 -19.331327 -2.486037 3.474322 -2.548393 -0.209159 13.393340 -22.648173 -20.372405 112.763342 -73.207545 -84.570226 21.392347 -15.210853 -43.727767 -7.420418 -4.167950 -2.089673 15.947662 -14.202224 -0.099907 135.520401 -60.308633 -167.957932 -7.763089 4.895961 -20.360579 6.833841 -37.645854 3.244647 -3.555891 63.150337 -4.431985 7.036470 11.572185 13.331948 -0.136702 -7.669425 0.138935 -16.015291 -46.741016 8.590510 27.377474 63.402283 30.806944 -10.977727 41.764988 2.809629 0.334465 -20.201447 -9.123250
-15.287787 58.423530 59.517255 -179.924288 -31.854282 -10.904960 3.625288 22.120595 7.457355 0.294443 3.257689 0.630865 0.494522 5.265057 1.029582 2.301027 18.927983 4.044930 -1.237521 8.969439 -1.588052 -1.637152 -19.376124 -2.508386 3.582893 -2.541302 -0.187585 13.993496 -22.914851 -20.617740 112.447319 -73.186788 -84.065048 21.416632 -15.294899 -43.699268 -7.570501 -4.276267 -2.239218 15.152243 -14.417187 0.056663 134.183800 -60.966382 -166.856910 -7.681045 4.805209 -20.234468 6.867109 -37.616700 3.182953 -3.497473 63.160093 -4.381154 7.022395 11.565644 13.364581 -0.135232 -7.680440 0.135124 -15.957672 -46.724164 8.526681 27.346048 63.396027 30.756710 -10.946323 41.770779 2.868500 0.321303 -20.214062 -9.119724
-15.295925 58.427122 59.511524 -179.855062 -31.886107 -10.926118 3.607112 22.112341 7.479697 0.294421 3.249265 0.633584 0.494589 5.252068 1.034032 2.290955 18.922042 4.056793 -1.274208 8.953778 -1.603404 -1.748293 -19.324999 -2.512480 3.709143 -2.572600 -0.160918 14.621985 -23.192795 -20.875035 112.131049 -73.165045 -83.585922 21.442847 -15.371923 -43.651300 -7.728945 -4.428817 -2.382110 14.367436 -14.613169 0.238520 132.212833 -61.543355 -165.232742 -7.553192 4.704004 -20.076768 6.860757 -37.567405 3.141117 -3.502357 63.166087 -4.368695 7.027523 11.567657 13.379839 -0.128238 -7.697693 0.131083 -15.947426 -46.687489 8.483769 27.311682 63.394791 30.716988 -10.931017 41.780880 2.876490 0.310984 -20.231744 -9.094467
-15.305089 58.428699 59.508377 -179.818471 -31.904578 -10.927865 3.615735 22.096638 7.498859 0.271237 3.260287 0.624518 0.519741 5.226008 1.048911 2.250215 18.949114 4.047567 -1.283003 8.907477 -1.602665 -1.877079 -19.284008 -2.500851 3.864282 -2.659482 -0.123926 15.261067 -23.473435 -21.139169 111.860806 -73.137371 -83.171682 21.462508 -15.444770 -43.581460 -7.886336 -4.639430 -2.505523 13.596401 -14.776718 0.440111 129.854249 -62.030081 -163.294366 -7.380439 4.585445 -19.874854 6.881215 -37.544348 3.099977 -3.483497 63.174635 -4.348163 7.026540 11.586971 13.407591 -0.131435 -7.727998 0.127790 -15.938149 -46.669384 8.449766 27.317063 63.388787 30.706198 -10.894042 41.798946 2.920246 0.298506 -20.267615 -9.096125
-15.318096 58.428369 59.506644 -179.773114 -31.909143 -10.914401 3.609854 22.079596 7.497005 0.245880 3.265734 0.614836 0.534918 5.217502 1.059231 2.266298 18.909572 4.069961 -1.346603 8.921648 -1.614584 -2.026728 -19.268666 -2.470220 3.967265 -2.710092 -0.097158 15.894294 -23.752231 -21.404750 111.673614 -73.102349 -82.846046 21.473997 -15.521756 -43.502993 -8.119966 -4.820034 -2.646537 12.832861 -14.904507 0.659053 127.340278 -62.424311 -161.237692 -7.188225 4.449996 -19.632770 6.907818 -37.531348 3.029738 -3.457703 63.187962 -4.322041 7.018876 11.587017 13.432541 -0.135631 -7.742878 0.127606 -15.881477 -46.672502 8.387036 27.299214 63.373793 30.662594 -10.868457 41.841106 2.988714 0.284833 -20.315969 -9.089576
-15.324441 58.427418 59.508109 -179.736906 -31.896917 -10.939326 3.627940 22.048939 7.537889 0.295956 3.240621 0.641957 0.445736 5.252021 1.027996 2.317850 18.876727 4.105582 -1.441479 8.898146 -1.604823 -2.171121 -19.261605 -2.447090 4.051890 -2.792773 -0.075850 16.509131 -24.031101 -21.661263 111.589666 -73.062164 -82.617017 21.478001 -15.607281 -43.426963 -8.384666 -5.032125 -2.781569 12.064658 -15.002977 0.892240 124.876337 -62.724295 -159.231928 -7.008975 4.309640 -19.379601 6.907313 -37.535335 3.017159 -3.439312 63.183266 -4.303391 7.011415 11.596260 13.456985 -0.142424 -7.755071 0.127524 -15.797986 -46.696107 8.379079 27.181737 63.383418 30.557011 -10.931552 41.885133 2.976515 0.340607 -20.362547 -9.058777
-15.341975 58.424878 59.507958 -179.703077 -31.888120 -10.896564 3.598134 22.039109 7.488622 0.319169 3.237468 0.649936 0.448491 5.246291 1.036715 2.325398 18.875287 4.122917 -1.539592 8.883915 -1.601419 -2.347864 -19.312362 -2.391276 4.123663 -2.900171 -0.054889 17.093061 -24.314860 -21.898555 111.630769 -73.021202 -82.496392 21.472030 -15.699325 -43.362955 -8.657505 -5.266512 -2.899070 11.282558 -15.077822 1.125734 122.655106 -62.945222 -157.436551 -6.866412 4.179894 -19.164041 6.956908 -37.541005 2.917840 -3.403941 63.205516 -4.278710 7.000551 11.593649 13.491673 -0.131631 -7.769933 0.123181 -15.697591 -46.728163 8.291440 27.248081 63.345668 30.559050 -10.880866 41.972201 3.148214 0.298290 -20.445601 -9.073770
-15.350803 58.425701 59.505483 -179.646275 -31.896555 -10.919406 3.575527 22.047730 7.497544 0.337332 3.237595 0.656340 0.456202 5.245548 1.042931 2.327910 18.878349 4.137852 -1.650143 8.850169 -1.589889 -2.541248 -19.391056 -2.325909 4.187586 -3.018711 -0.036878 17.631243 -24.605871 -22.110743 111.810946 -72.985277 -82.492143 21.455267 -15.795498 -43.316070 -8.924011 -5.515101 -2.996874 10.489183 -15.130567 1.339571 120.836683 -63.118878 -155.990125 -6.773174 4.071693 -19.016133 6.939012 -37.519660 2.901554 -3.382576 63.209258 -4.270858 6.993786 11.600975 13.522579 -0.137098 -7.788849 0.120001 -15.655981 -46.727317 8.264746 27.246176 63.333511 30.547081 -10.918737 42.019961 3.173657 0.314166 -20.499985 -9.057019
-15.358436 58.427300 59.502170 -179.592122 -31.909332 -10.947336 3.575995 22.054891 7.523385 0.334698 3.244460 0.657602 0.458079 5.248043 1.049030 2.347863 18.894958 4.166088 -1.745719 8.809126 -1.597276 -2.802798 -19.519043 -2.234185 4.235200 -3.153602 -0.039250 18.116151 -24.903132 -22.297164 112.104938 -72.959424 -82.583697 21.436564 -15.894977 -43.292850 -9.188995 -5.787684 -3.089780 9.691987 -15.165805 1.529207 119.498135 -63.272268 -154.963113 -6.729354 3.984250 -18.937685 6.903021 -37.489240 2.925733 -3.323875 63.207721 -4.272047 6.960458 11.595065 13.574789 -0.135022 -7.796524 0.115547 -15.615768 -46.722714 8.248243 27.258400 63.322902 30.548244 -10.969936 42.066995 3.191981 0.330496 -20.558068 -9.035477
-15.364612 58.429721 59.498007 -179.528645 -31.923608 -10.987226 3.592285 22.063084 7.566581 0.292752 3.252419 0.651272 0.476137 5.250707 1.057587 2.314918 18.894725 4.161361 -1.868763 8.744698 -1.572725 -3.010775 -19.643613 -2.166857 4.324678 -3.267332 -0.032002 18.552714 -25.202993 -22.460664 112.479788 -72.943497 -82.748090 21.430787 -15.991932 -43.311746 -9.389581 -6.035191 -3.161279 8.903243 -15.197370 1.702811 118.599947 -63.408066 -154.315689 -6.758435 3.914584 -18.921883 6.872813 -37.459584 2.938448 -3.314218 63.207825 -4.286124 6.943484 11.606563 13.614225 -0.123447 -7.819183 0.109234 -15.593247 -46.715840 8.246001 27.276489 63.316463 30.551378 -11.017233 42.116471 3.211775 0.354524 -20.634339 -9.016200
-15.369734 58.432329 59.493871 -179.459752 -31.932544 -11.034001 3.561598 22.079390 7.589209 0.291487 3.254835 0.652583 0.490161 5.260229 1.064614 2.299714 18.905761 4.171649 -2.025808 8.647645 -1.557098 -3.229680 -19.786776 -2.099367 4.392452 -3.396938 -0.040044 18.952978 -25.498309 -22.604886 112.917007 -72.928997 -82.982206 21.437674 -16.070642 -43.374731 -9.583135 -6.295080 -3.228840 8.140888 -15.240502 1.863103 118.071058 -63.505584 -153.962818 -6.930704 3.907256 -18.963935 6.835412 -37.431130 2.955652 -3.302750 63.203942 -4.300715 6.939994 11.609847 13.653669 -0.133700 -7.836992 0.109106 -15.584877 -46.712605 8.255074 27.289167 63.311339 30.548653 -11.064922 42.171226 3.222868 0.352525 -20.685035 -8.979291
